0
SECTION
2
HEADER
9
$INSUNITS
70
4
9
$ACADVER
1
AC1014
9
$HANDSEED
5
FFFF
0
ENDSEC
0
SECTION
2
TABLES
0
TABLE
2
VPORT
5
8
100
AcDbSymbolTable
0
ENDTAB
0
TABLE
2
LTYPE
5
5
100
AcDbSymbolTable
0
LTYPE
5
14
100
AcDbSymbolTableRecord
100
AcDbLinetypeTableRecord
2
BYBLOCK
70
0
0
LTYPE
5
15
100
AcDbSymbolTableRecord
100
AcDbLinetypeTableRecord
2
BYLAYER
70
0
0
ENDTAB
0
TABLE
2
LAYER
5
2
100
AcDbSymbolTable
70
2
0
LAYER
5
50
100
AcDbSymbolTableRecord
100
AcDbLayerTableRecord
2
0
70
0
6
CONTINUOUS
0
ENDTAB
0
TABLE
2
STYLE
5
3
100
AcDbSymbolTable
70
1
0
STYLE
5
11
100
AcDbSymbolTableRecord
100
AcDbTextStyleTableRecord
2
STANDARD
70
0
0
ENDTAB
0
TABLE
2
VIEW
5
6
100
AcDbSymbolTable
70
0
0
ENDTAB
0
TABLE
2
UCS
5
7
100
AcDbSymbolTable
70
0
0
ENDTAB
0
TABLE
2
APPID
5
9
100
AcDbSymbolTable
70
2
0
APPID
5
12
100
AcDbSymbolTableRecord
100
AcDbRegAppTableRecord
2
ACAD
70
0
0
ENDTAB
0
TABLE
2
DIMSTYLE
5
A
100
AcDbSymbolTable
70
1
0
ENDTAB
0
TABLE
2
BLOCK_RECORD
5
1
100
AcDbSymbolTable
70
1
0
BLOCK_RECORD
5
1F
100
AcDbSymbolTableRecord
100
AcDbBlockTableRecord
2
*MODEL_SPACE
0
BLOCK_RECORD
5
1B
100
AcDbSymbolTableRecord
100
AcDbBlockTableRecord
2
*PAPER_SPACE
0
ENDTAB
0
ENDSEC
0
SECTION
2
BLOCKS
0
BLOCK
5
20
100
AcDbEntity
100
AcDbBlockBegin
2
*MODEL_SPACE
0
ENDBLK
5
21
100
AcDbEntity
100
AcDbBlockEnd
0
BLOCK
5
1C
100
AcDbEntity
100
AcDbBlockBegin
2
*PAPER_SPACE
0
ENDBLK
5
1D
100
AcDbEntity
100
AcDbBlockEnd
0
ENDSEC
0
SECTION
2
ENTITIES
0
LWPOLYLINE
5
100
100
AcDbEntity
8
0
100
AcDbPolyline
90
32
70
1
43
0.0
10
-274.54699999999997
20
37.499999999999986
42
-0.41421356237310525
10
-276.32499999999993
20
39.277999999999949
10
-276.32499999999993
20
54.771999999999963
42
0.41421356237309509
10
-278.10299999999995
20
56.549999999999976
10
-279.30950000000007
20
56.549999999999947
42
-0.41421356237308771
10
-281.08750000000003
20
58.327999999999953
10
-281.08749999999998
20
74.52200000000002
42
-0.41421356237309792
10
-279.30950000000001
20
76.300000000000011
10
-15.96549999999997
20
76.300000000000026
42
-0.41421356237309759
10
-14.187499999999968
20
74.52200000000002
10
-14.187499999999977
20
59.527999999999992
42
0.41421356237309759
10
-12.409499999999962
20
57.749999999999993
10
-11.202999999999985
20
57.75
42
-0.41421356237309359
10
-9.4249999999999758
20
55.972000000000008
10
-9.4249999999999758
20
40.477999999999987
42
0.41421356237309231
10
-7.6469999999999949
20
38.699999999999982
10
-6.4404999999999557
20
38.699999999999974
42
-0.41421356237309076
10
-4.6624999999999712
20
36.921999999999976
10
-4.6624999999999739
20
21.427999999999976
42
0.41421356237309792
10
-2.8844999999999565
20
19.649999999999974
10
-1.6780000000000153
20
19.649999999999984
42
-0.41421356237309825
10
0.099999999999997868
20
17.871999999999989
10
0.099999999999995648
20
1.6779999999999955
42
-0.41421356237309492
10
-1.6779999999999973
20
-0.099999999999997868
10
-265.02199999999993
20
-0.09999999999998177
42
-0.41421356237310336
10
-266.79999999999995
20
1.6780000000000106
10
-266.79999999999995
20
16.671999999999958
42
0.41421356237309509
10
-268.57799999999997
20
18.449999999999974
10
-269.78449999999992
20
18.449999999999971
42
-0.41421356237308188
10
-271.56249999999994
20
20.227999999999973
10
-271.56249999999994
20
35.721999999999966
42
0.41421356237309431
10
-273.34049999999996
20
37.499999999999986
0
CIRCLE
5
101
100
AcDbEntity
8
0
100
AcDbCircle
10
-52.38749999999996
20
57.149999999999963
30
0
40
1
210
0
220
-0
230
1
0
CIRCLE
5
102
100
AcDbEntity
8
0
100
AcDbCircle
10
-233.36249999999984
20
19.049999999999972
30
0
40
1
210
0
220
-0
230
1
0
CIRCLE
5
103
100
AcDbEntity
8
0
100
AcDbCircle
10
-147.63749999999993
20
57.149999999999963
30
0
40
1
210
0
220
-0
230
1
0
CIRCLE
5
104
100
AcDbEntity
8
0
100
AcDbCircle
10
-242.8874999999999
20
57.149999999999963
30
0
40
1
210
0
220
-0
230
1
0
CIRCLE
5
105
100
AcDbEntity
8
0
100
AcDbCircle
10
-138.11249999999995
20
19.049999999999972
30
0
40
1
210
0
220
-0
230
1
0
CIRCLE
5
106
100
AcDbEntity
8
0
100
AcDbCircle
10
-42.862499999999955
20
19.049999999999972
30
0
40
1
210
0
220
-0
230
1
0
LWPOLYLINE
5
107
100
AcDbEntity
8
0
100
AcDbPolyline
90
8
70
1
43
0.0
10
-126.35000000000002
20
41.125
42
-0.4142135623731002
10
-126.85000000000001
20
40.625
10
-139.84999999999999
20
40.624999999999993
42
-0.41421356237309509
10
-140.34999999999999
20
41.125
10
-140.34999999999999
20
54.125000000000007
42
-0.41421356237308982
10
-139.84999999999999
20
54.625
10
-126.85000000000001
20
54.625000000000014
42
-0.41421356237307422
10
-126.34999999999999
20
54.125000000000007
0
LWPOLYLINE
5
108
100
AcDbEntity
8
0
100
AcDbPolyline
90
8
70
1
43
0.0
10
-83.487499999999983
20
22.074999999999999
42
-0.41421356237310802
10
-83.987499999999997
20
21.575000000000003
10
-96.987500000000011
20
21.574999999999992
42
-0.41421356237309509
10
-97.487500000000011
20
22.074999999999999
10
-97.487500000000011
20
35.075000000000003
42
-0.41421356237310542
10
-96.987500000000011
20
35.575000000000003
10
-83.987499999999997
20
35.575000000000003
42
-0.41421356237309243
10
-83.487499999999983
20
35.075000000000003
0
LWPOLYLINE
5
109
100
AcDbEntity
8
0
100
AcDbPolyline
90
8
70
1
43
0.0
10
-131.11250000000001
20
60.174999999999997
42
-0.41421356237310542
10
-131.61250000000001
20
59.675000000000004
10
-144.61250000000001
20
59.674999999999983
42
-0.41421356237307944
10
-145.11250000000001
20
60.174999999999997
10
-145.11250000000001
20
73.174999999999997
42
-0.4142135623731002
10
-144.61250000000001
20
73.674999999999997
10
-131.61250000000001
20
73.675000000000011
42
-0.41421356237309509
10
-131.11250000000001
20
73.174999999999997
0
LWPOLYLINE
5
110
100
AcDbEntity
8
0
100
AcDbPolyline
90
8
70
1
43
0.0
10
-159.68749999999997
20
22.074999999999999
42
-0.41421356237311846
10
-160.1875
20
21.575000000000003
10
-173.1875
20
21.574999999999982
42
-0.41421356237310281
10
-173.68750000000003
20
22.074999999999999
10
-173.68750000000003
20
35.075000000000003
42
-0.41421356237304557
10
-173.1875
20
35.575000000000003
10
-160.1875
20
35.575000000000003
42
-0.41421356237309243
10
-159.6875
20
35.075000000000003
0
LWPOLYLINE
5
111
100
AcDbEntity
8
0
100
AcDbPolyline
90
8
70
1
43
0.0
10
-58.88750000000001
20
21.575000000000003
42
-0.41421356237309509
10
-59.387500000000003
20
22.074999999999999
10
-59.387500000000003
20
35.075000000000003
42
-0.41421356237309509
10
-58.88750000000001
20
35.575000000000003
10
-45.887499999999989
20
35.575000000000003
42
-0.41421356237308982
10
-45.387500000000003
20
35.075000000000003
10
-45.387500000000003
20
22.074999999999999
42
-0.41421356237309509
10
-45.887500000000003
20
21.575000000000003
0
LWPOLYLINE
5
112
100
AcDbEntity
8
0
100
AcDbPolyline
90
8
70
1
43
0.0
10
-12.050000000000002
20
41.125
42
-0.41421356237309509
10
-12.550000000000001
20
40.625
10
-25.549999999999997
20
40.625
42
-0.4142135623730977
10
-26.050000000000001
20
41.125
10
-26.050000000000001
20
54.125000000000007
42
-0.41421356237309509
10
-25.550000000000001
20
54.625
10
-12.550000000000008
20
54.625
42
-0.4142135623730977
10
-12.050000000000001
20
54.125000000000007
0
LWPOLYLINE
5
113
100
AcDbEntity
8
0
100
AcDbPolyline
90
8
70
1
43
0.0
10
-59.675000000000004
20
3.0249999999999999
42
-0.4142135623730967
10
-60.174999999999997
20
2.5249999999999999
10
-73.174999999999997
20
2.525000000000003
42
-0.41421356237309437
10
-73.674999999999997
20
3.0249999999999999
10
-73.674999999999997
20
16.024999999999999
42
-0.4142135623730937
10
-73.174999999999997
20
16.525000000000002
10
-60.174999999999997
20
16.525000000000002
42
-0.4142135623730977
10
-59.675000000000004
20
16.024999999999999
0
LWPOLYLINE
5
114
100
AcDbEntity
8
0
100
AcDbPolyline
90
8
70
1
43
0.0
10
-69.200000000000003
20
41.125
42
-0.41421356237309509
10
-69.700000000000003
20
40.625
10
-82.700000000000017
20
40.624999999999993
42
-0.41421356237307422
10
-83.200000000000017
20
41.125
10
-83.200000000000003
20
54.125000000000007
42
-0.4142135623731002
10
-82.700000000000017
20
54.625
10
-69.700000000000003
20
54.625
42
-0.41421356237309509
10
-69.200000000000003
20
54.125000000000007
0
LWPOLYLINE
5
115
100
AcDbEntity
8
0
100
AcDbPolyline
90
8
70
1
43
0.0
10
-78.724999999999994
20
3.0249999999999999
42
-0.4142135623730967
10
-79.224999999999994
20
2.5249999999999999
10
-92.224999999999994
20
2.5249999999999941
42
-0.41421356237309437
10
-92.725000000000009
20
3.0249999999999999
10
-92.725000000000009
20
16.024999999999999
42
-0.41421356237310675
10
-92.224999999999994
20
16.525000000000002
10
-79.224999999999994
20
16.525000000000002
42
-0.4142135623730977
10
-78.724999999999994
20
16.024999999999999
0
LWPOLYLINE
5
116
100
AcDbEntity
8
0
100
AcDbPolyline
90
8
70
1
43
0.0
10
-154.92500000000001
20
3.0249999999999999
42
-0.41421356237307422
10
-155.42500000000001
20
2.5249999999999999
10
-168.42500000000001
20
2.5249999999999817
42
-0.41421356237310153
10
-168.92500000000001
20
3.0249999999999999
10
-168.92500000000001
20
16.024999999999999
42
-0.41421356237304691
10
-168.42500000000001
20
16.525000000000002
10
-155.42500000000001
20
16.525000000000009
42
-0.41421356237307549
10
-154.92500000000001
20
16.024999999999999
0
LWPOLYLINE
5
117
100
AcDbEntity
8
0
100
AcDbPolyline
90
8
70
1
43
0.0
10
-121.58750000000001
20
22.074999999999999
10
-121.58750000000001
20
35.075000000000003
42
0.41421356237309243
10
-122.08750000000002
20
35.575000000000003
10
-135.08750000000001
20
35.575000000000003
42
0.4142135623731002
10
-135.58750000000001
20
35.075000000000003
10
-135.58750000000001
20
22.074999999999999
42
0.41421356237307422
10
-135.08750000000001
20
21.575000000000003
10
-122.08750000000002
20
21.575000000000003
42
0.41421356237310802
0
LWPOLYLINE
5
118
100
AcDbEntity
8
0
100
AcDbPolyline
90
8
70
1
43
0.0
10
-216.83750000000001
20
22.074999999999999
42
-0.41421356237305079
10
-217.33750000000001
20
21.575000000000003
10
-230.33750000000001
20
21.574999999999996
42
-0.414213562373134
10
-230.83750000000003
20
22.074999999999999
10
-230.83750000000006
20
35.075000000000003
42
-0.41421356237307683
10
-230.33750000000001
20
35.575000000000003
10
-217.33750000000001
20
35.575000000000017
42
-0.4142135623731002
10
-216.83750000000001
20
35.075000000000003
0
LWPOLYLINE
5
119
100
AcDbEntity
8
0
100
AcDbPolyline
90
8
70
1
43
0.0
10
-140.63749999999999
20
22.074999999999999
42
-0.41421356237310802
10
-141.13749999999999
20
21.575000000000003
10
-154.13749999999999
20
21.574999999999992
42
-0.41421356237309509
10
-154.63750000000002
20
22.074999999999999
10
-154.63750000000002
20
35.075000000000003
42
-0.41421356237310542
10
-154.13749999999999
20
35.575000000000003
10
-141.13749999999999
20
35.575000000000003
42
-0.41421356237309243
10
-140.63749999999999
20
35.075000000000003
0
LWPOLYLINE
5
120
100
AcDbEntity
8
0
100
AcDbPolyline
90
8
70
1
43
0.0
10
-88.25
20
41.125
42
-0.41421356237308982
10
-88.75
20
40.625
10
-101.75
20
40.624999999999993
42
-0.41421356237309509
10
-102.25000000000001
20
41.125
10
-102.25000000000001
20
54.125000000000007
42
-0.41421356237308982
10
-101.75
20
54.625
10
-88.75
20
54.625000000000014
42
-0.41421356237309509
10
-88.25
20
54.125000000000007
0
LWPOLYLINE
5
121
100
AcDbEntity
8
0
100
AcDbPolyline
90
8
70
1
43
0.0
10
-178.73750000000001
20
22.074999999999999
42
-0.41421356237308204
10
-179.23750000000001
20
21.575000000000003
10
-192.23750000000001
20
21.574999999999982
42
-0.41421356237310281
10
-192.73750000000004
20
22.074999999999999
10
-192.73750000000004
20
35.075000000000003
42
-0.41421356237304557
10
-192.23750000000001
20
35.575000000000003
10
-179.23750000000001
20
35.575000000000003
42
-0.41421356237313145
10
-178.73750000000001
20
35.075000000000003
0
LWPOLYLINE
5
122
100
AcDbEntity
8
0
100
AcDbPolyline
90
8
70
1
43
0.0
10
-212.07499999999999
20
3.0250000000000021
10
-212.07499999999999
20
16.024999999999999
42
0.41421356237312362
10
-212.57499999999999
20
16.524999999999999
10
-225.57500000000002
20
16.525000000000002
42
0.4142135623730781
10
-226.07500000000002
20
16.024999999999999
10
-226.07500000000002
20
3.0249999999999999
42
0.41421356237313273
10
-225.57500000000002
20
2.5249999999999995
10
-212.57499999999999
20
2.5249999999999999
42
0.41421356237304752
0
LWPOLYLINE
5
123
100
AcDbEntity
8
0
100
AcDbPolyline
90
8
70
1
43
0.0
10
-116.03749999999999
20
21.574999999999992
42
-0.41421356237307422
10
-116.53750000000001
20
22.074999999999999
10
-116.53749999999999
20
35.075000000000003
42
-0.4142135623731002
10
-116.03749999999999
20
35.575000000000003
10
-103.03750000000001
20
35.575000000000003
42
-0.41421356237309243
10
-102.53749999999999
20
35.075000000000003
10
-102.53749999999999
20
22.074999999999999
42
-0.41421356237310802
10
-103.03750000000001
20
21.575000000000003
0
LWPOLYLINE
5
124
100
AcDbEntity
8
0
100
AcDbPolyline
90
8
70
1
43
0.0
10
-31.100000000000012
20
41.125
10
-31.100000000000012
20
54.125000000000007
42
0.41421356237309509
10
-31.600000000000001
20
54.625
10
-44.600000000000001
20
54.625
42
0.41421356237309509
10
-45.099999999999994
20
54.125000000000007
10
-45.099999999999994
20
41.125
42
0.4142135623731002
10
-44.599999999999994
20
40.625
10
-31.600000000000001
20
40.625
42
0.41421356237309509
0
LWPOLYLINE
5
125
100
AcDbEntity
8
0
100
AcDbPolyline
90
8
70
1
43
0.0
10
-26.337499999999999
20
22.074999999999999
42
-0.41421356237309509
10
-26.837499999999999
20
21.575000000000003
10
-39.837500000000006
20
21.574999999999992
42
-0.41421356237310542
10
-40.337500000000006
20
22.074999999999999
10
-40.337499999999991
20
35.075000000000003
42
-0.41421356237311319
10
-39.837499999999999
20
35.575000000000003
10
-26.837499999999999
20
35.575000000000003
42
-0.41421356237309509
10
-26.337499999999999
20
35.075000000000003
0
LWPOLYLINE
5
126
100
AcDbEntity
8
0
100
AcDbPolyline
90
8
70
1
43
0.0
10
-193.02499999999998
20
3.0249999999999999
42
-0.41421356237307744
10
-193.52500000000003
20
2.5249999999999999
10
-206.52500000000003
20
2.5249999999999817
42
-0.41421356237310153
10
-207.02500000000003
20
3.0249999999999999
10
-207.02500000000003
20
16.024999999999999
42
-0.41421356237304691
10
-206.52500000000003
20
16.525000000000002
10
-193.52500000000003
20
16.525000000000002
42
-0.414213562373134
10
-193.02500000000003
20
16.024999999999999
0
LWPOLYLINE
5
127
100
AcDbEntity
8
0
100
AcDbPolyline
90
8
70
1
43
0.0
10
-183.49999999999997
20
41.125
42
-0.41421356237307422
10
-184.00000000000003
20
40.625
10
-197.00000000000003
20
40.625000000000014
42
-0.41421356237312101
10
-197.50000000000003
20
41.125
10
-197.5
20
54.125000000000007
42
-0.4142135623730222
10
-197.00000000000003
20
54.625
10
-184.00000000000003
20
54.625
42
-0.41421356237313145
10
-183.5
20
54.125000000000007
0
LWPOLYLINE
5
128
100
AcDbEntity
8
0
100
AcDbPolyline
90
8
70
1
43
0.0
10
-40.625
20
3.0250000000000021
10
-40.625
20
16.024999999999999
42
0.41421356237308982
10
-41.124999999999986
20
16.524999999999999
10
-54.125000000000007
20
16.525000000000002
42
0.4142135623730937
10
-54.625
20
16.024999999999999
10
-54.625
20
3.0249999999999999
42
0.41421356237309437
10
-54.125000000000007
20
2.5249999999999995
10
-41.125
20
2.5249999999999999
42
0.41421356237309537
0
LWPOLYLINE
5
129
100
AcDbEntity
8
0
100
AcDbPolyline
90
8
70
1
43
0.0
10
-226.36250000000004
20
60.174999999999997
42
-0.4142135623730222
10
-226.86250000000001
20
59.675000000000004
10
-239.86250000000001
20
59.674999999999997
42
-0.41421356237313667
10
-240.36250000000001
20
60.174999999999997
10
-240.36250000000007
20
73.174999999999997
42
-0.41421356237307422
10
-239.86250000000001
20
73.674999999999997
10
-226.86250000000001
20
73.674999999999983
42
-0.41421356237312101
10
-226.36250000000001
20
73.174999999999997
0
LWPOLYLINE
5
130
100
AcDbEntity
8
0
100
AcDbPolyline
90
8
70
1
43
0.0
10
-135.875
20
3.0249999999999999
42
-0.41421356237307422
10
-136.375
20
2.5249999999999999
10
-149.375
20
2.5249999999999941
42
-0.41421356237309437
10
-149.875
20
3.0249999999999999
10
-149.875
20
16.024999999999999
42
-0.41421356237310675
10
-149.375
20
16.525000000000002
10
-136.375
20
16.525000000000009
42
-0.41421356237307549
10
-135.875
20
16.024999999999999
0
LWPOLYLINE
5
131
100
AcDbEntity
8
0
100
AcDbPolyline
90
8
70
1
43
0.0
10
-211.28749999999999
20
21.574999999999996
42
-0.414213562373134
10
-211.78750000000002
20
22.074999999999999
10
-211.78750000000005
20
35.075000000000003
42
-0.41421356237307683
10
-211.28749999999999
20
35.575000000000003
10
-198.28749999999999
20
35.575000000000017
42
-0.4142135623731002
10
-197.78749999999999
20
35.075000000000003
10
-197.78749999999999
20
22.074999999999999
42
-0.41421356237305079
10
-198.28749999999999
20
21.575000000000003
0
LWPOLYLINE
5
132
100
AcDbEntity
8
0
100
AcDbPolyline
90
8
70
1
43
0.0
10
-202.54999999999998
20
41.125
42
-0.41421356237307422
10
-203.05000000000004
20
40.625
10
-216.05000000000004
20
40.625000000000014
42
-0.41421356237312101
10
-216.55000000000004
20
41.125
10
-216.55000000000001
20
54.125000000000007
42
-0.4142135623730222
10
-216.05000000000004
20
54.625
10
-203.05000000000004
20
54.625
42
-0.41421356237313145
10
-202.55000000000001
20
54.125000000000007
0
LWPOLYLINE
5
133
100
AcDbEntity
8
0
100
AcDbPolyline
90
8
70
1
43
0.0
10
-264.46249999999998
20
60.174999999999997
42
-0.41421356237307422
10
-264.96249999999998
20
59.675000000000004
10
-277.96249999999998
20
59.675000000000011
42
-0.41421356237312629
10
-278.46250000000003
20
60.174999999999997
10
-278.46249999999998
20
73.174999999999997
42
-0.4142135623730222
10
-277.96249999999998
20
73.674999999999997
10
-264.96249999999998
20
73.674999999999997
42
-0.41421356237313145
10
-264.46249999999998
20
73.174999999999997
0
LWPOLYLINE
5
134
100
AcDbEntity
8
0
100
AcDbPolyline
90
8
70
1
43
0.0
10
-50.150000000000006
20
41.125
42
-0.41421356237309509
10
-50.650000000000006
20
40.625
10
-63.650000000000006
20
40.625
42
-0.41421356237309509
10
-64.150000000000006
20
41.125
10
-64.150000000000006
20
54.125000000000007
42
-0.41421356237309509
10
-63.650000000000006
20
54.625
10
-50.650000000000006
20
54.625
42
-0.41421356237309509
10
-50.150000000000006
20
54.125000000000007
0
LWPOLYLINE
5
135
100
AcDbEntity
8
0
100
AcDbPolyline
90
8
70
1
43
0.0
10
-145.40000000000003
20
41.125
42
-0.4142135623731002
10
-145.90000000000001
20
40.625
10
-158.90000000000001
20
40.624999999999993
42
-0.41421356237309509
10
-159.40000000000001
20
41.125
10
-159.40000000000001
20
54.125000000000007
42
-0.41421356237308982
10
-158.90000000000001
20
54.625
10
-145.90000000000001
20
54.625000000000014
42
-0.41421356237307422
10
-145.40000000000001
20
54.125000000000007
0
LWPOLYLINE
5
136
100
AcDbEntity
8
0
100
AcDbPolyline
90
8
70
1
43
0.0
10
-245.41250000000005
20
60.174999999999997
42
-0.4142135623730222
10
-245.91250000000002
20
59.675000000000004
10
-258.91250000000002
20
59.674999999999997
42
-0.41421356237313667
10
-259.41250000000002
20
60.174999999999997
10
-259.41250000000008
20
73.174999999999997
42
-0.41421356237307422
10
-258.91250000000002
20
73.674999999999997
10
-245.91250000000002
20
73.674999999999983
42
-0.41421356237312101
10
-245.41250000000002
20
73.174999999999997
0
LWPOLYLINE
5
137
100
AcDbEntity
8
0
100
AcDbPolyline
90
8
70
1
43
0.0
10
-188.26250000000002
20
60.174999999999997
42
-0.4142135623730222
10
-188.76249999999999
20
59.675000000000004
10
-201.76249999999999
20
59.674999999999997
42
-0.41421356237313667
10
-202.26249999999999
20
60.174999999999997
10
-202.26250000000005
20
73.174999999999997
42
-0.41421356237307422
10
-201.76249999999999
20
73.674999999999997
10
-188.76249999999999
20
73.674999999999983
42
-0.41421356237312101
10
-188.26249999999999
20
73.174999999999997
0
LWPOLYLINE
5
138
100
AcDbEntity
8
0
100
AcDbPolyline
90
8
70
1
43
0.0
10
-207.31250000000003
20
60.174999999999997
42
-0.4142135623730222
10
-207.8125
20
59.675000000000004
10
-220.8125
20
59.674999999999997
42
-0.41421356237313667
10
-221.3125
20
60.174999999999997
10
-221.31250000000006
20
73.174999999999997
42
-0.41421356237307422
10
-220.8125
20
73.674999999999997
10
-207.8125
20
73.674999999999983
42
-0.41421356237312101
10
-207.3125
20
73.174999999999997
0
LWPOLYLINE
5
139
100
AcDbEntity
8
0
100
AcDbPolyline
90
8
70
1
43
0.0
10
-221.60000000000002
20
41.125
42
-0.4142135623730222
10
-222.10000000000002
20
40.625
10
-235.10000000000002
20
40.625
42
-0.41421356237313145
10
-235.60000000000002
20
41.125
10
-235.60000000000005
20
54.125000000000007
42
-0.41421356237307422
10
-235.10000000000002
20
54.625
10
-222.10000000000002
20
54.624999999999986
42
-0.41421356237312101
10
-221.59999999999999
20
54.125000000000007
0
LWPOLYLINE
5
140
100
AcDbEntity
8
0
100
AcDbPolyline
90
8
70
1
43
0.0
10
-254.93750000000003
20
22.074999999999999
10
-254.93750000000003
20
35.075000000000003
42
0.4142135623731002
10
-255.43750000000003
20
35.575000000000003
10
-268.4375
20
35.575000000000003
42
0.41421356237304557
10
-268.9375
20
35.075000000000003
10
-268.9375
20
22.074999999999999
42
0.41421356237310281
10
-268.4375
20
21.575000000000003
10
-255.43750000000003
20
21.575000000000003
42
0.41421356237305079
0
LWPOLYLINE
5
141
100
AcDbEntity
8
0
100
AcDbPolyline
90
8
70
1
43
0.0
10
-259.69999999999993
20
41.125
42
-0.41421356237307422
10
-260.19999999999999
20
40.625
10
-273.19999999999999
20
40.625000000000014
42
-0.41421356237312101
10
-273.69999999999999
20
41.125
10
-273.69999999999999
20
54.125000000000007
42
-0.4142135623730222
10
-273.19999999999999
20
54.625
10
-260.19999999999999
20
54.625
42
-0.41421356237313145
10
-259.69999999999999
20
54.125000000000007
0
LWPOLYLINE
5
142
100
AcDbEntity
8
0
100
AcDbPolyline
90
8
70
1
43
0.0
10
-240.65000000000001
20
41.125
10
-240.65000000000001
20
54.125000000000007
42
0.41421356237312101
10
-241.15000000000003
20
54.625
10
-254.15000000000003
20
54.625
42
0.41421356237307422
10
-254.65000000000003
20
54.125000000000007
10
-254.65000000000003
20
41.125
42
0.41421356237313145
10
-254.15000000000003
20
40.625
10
-241.15000000000003
20
40.625
42
0.4142135623730222
0
LWPOLYLINE
5
143
100
AcDbEntity
8
0
100
AcDbPolyline
90
8
70
1
43
0.0
10
-235.88750000000002
20
22.074999999999999
10
-235.88750000000002
20
35.075000000000003
42
0.4142135623731002
10
-236.38750000000002
20
35.575000000000003
10
-249.38749999999999
20
35.575000000000003
42
0.41421356237304557
10
-249.88749999999999
20
35.075000000000003
10
-249.88749999999999
20
22.074999999999999
42
0.41421356237310281
10
-249.38749999999999
20
21.575000000000003
10
-236.38750000000002
20
21.575000000000003
42
0.41421356237305079
0
LWPOLYLINE
5
144
100
AcDbEntity
8
0
100
AcDbPolyline
90
8
70
1
43
0.0
10
-93.012499999999989
20
60.174999999999997
42
-0.41421356237310542
10
-93.512500000000003
20
59.675000000000004
10
-106.51250000000002
20
59.674999999999983
42
-0.4142135623731002
10
-107.01250000000002
20
60.174999999999997
10
-107.01250000000002
20
73.174999999999997
42
-0.41421356237308982
10
-106.51250000000002
20
73.674999999999997
10
-93.512500000000003
20
73.675000000000011
42
-0.41421356237309509
10
-93.012499999999989
20
73.174999999999997
0
LWPOLYLINE
5
145
100
AcDbEntity
8
0
100
AcDbPolyline
90
8
70
1
43
0.0
10
-35.075000000000003
20
2.5250000000000004
42
-0.4142135623730957
10
-35.575000000000003
20
3.0249999999999999
10
-35.575000000000003
20
16.024999999999999
42
-0.41421356237309509
10
-35.075000000000003
20
16.525000000000002
10
-22.074999999999996
20
16.525000000000002
42
-0.4142135623730937
10
-21.575000000000003
20
16.024999999999999
10
-21.575000000000003
20
3.0250000000000021
42
-0.4142135623730967
10
-22.074999999999999
20
2.5249999999999999
0
LWPOLYLINE
5
146
100
AcDbEntity
8
0
100
AcDbPolyline
90
8
70
1
43
0.0
10
-54.912500000000009
20
60.174999999999997
42
-0.41421356237309509
10
-55.412500000000009
20
59.675000000000004
10
-68.412499999999994
20
59.675000000000004
42
-0.41421356237309509
10
-68.912499999999994
20
60.174999999999997
10
-68.912499999999994
20
73.174999999999997
42
-0.41421356237309509
10
-68.412499999999994
20
73.674999999999997
10
-55.412500000000009
20
73.674999999999997
42
-0.41421356237309509
10
-54.912500000000009
20
73.174999999999997
0
LWPOLYLINE
5
147
100
AcDbEntity
8
0
100
AcDbPolyline
90
8
70
1
43
0.0
10
-35.862499999999997
20
60.174999999999997
42
-0.4142135623730977
10
-36.362499999999997
20
59.675000000000004
10
-49.362500000000004
20
59.675000000000004
42
-0.41421356237309509
10
-49.862499999999997
20
60.174999999999997
10
-49.862499999999997
20
73.174999999999997
42
-0.41421356237309509
10
-49.362500000000004
20
73.674999999999997
10
-36.362500000000004
20
73.674999999999997
42
-0.4142135623730977
10
-35.862500000000004
20
73.174999999999997
0
LWPOLYLINE
5
148
100
AcDbEntity
8
0
100
AcDbPolyline
90
8
70
1
43
0.0
10
-16.8125
20
60.174999999999997
42
-0.4142135623730977
10
-17.3125
20
59.675000000000004
10
-30.3125
20
59.675000000000011
42
-0.4142135623730977
10
-30.8125
20
60.174999999999997
10
-30.8125
20
73.174999999999997
42
-0.41421356237309509
10
-30.3125
20
73.674999999999997
10
-17.312500000000011
20
73.674999999999997
42
-0.41421356237309892
10
-16.8125
20
73.174999999999997
0
LWPOLYLINE
5
149
100
AcDbEntity
8
0
100
AcDbPolyline
90
8
70
1
43
0.0
10
-250.17500000000001
20
3.0249999999999999
42
-0.41421356237304624
10
-250.67500000000001
20
2.5249999999999999
10
-263.67500000000001
20
2.5249999999999995
42
-0.41421356237313273
10
-264.17500000000007
20
3.0249999999999999
10
-264.17500000000007
20
16.024999999999999
42
-0.4142135623730781
10
-263.67500000000001
20
16.525000000000002
10
-250.67500000000001
20
16.524999999999984
42
-0.41421356237312362
10
-250.17500000000001
20
16.024999999999999
0
LWPOLYLINE
5
150
100
AcDbEntity
8
0
100
AcDbPolyline
90
8
70
1
43
0.0
10
-169.21249999999998
20
60.174999999999997
42
-0.41421356237307422
10
-169.71250000000001
20
59.675000000000004
10
-182.71250000000003
20
59.675000000000011
42
-0.41421356237312629
10
-183.21250000000003
20
60.174999999999997
10
-183.21249999999998
20
73.174999999999997
42
-0.4142135623730222
10
-182.71250000000003
20
73.674999999999997
10
-169.71250000000001
20
73.674999999999997
42
-0.41421356237313145
10
-169.21250000000001
20
73.174999999999997
0
LWPOLYLINE
5
151
100
AcDbEntity
8
0
100
AcDbPolyline
90
8
70
1
43
0.0
10
-112.0625
20
60.174999999999997
42
-0.41421356237310542
10
-112.56250000000001
20
59.675000000000004
10
-125.56249999999999
20
59.674999999999983
42
-0.41421356237307944
10
-126.06250000000001
20
60.174999999999997
10
-126.0625
20
73.174999999999997
42
-0.4142135623731002
10
-125.5625
20
73.674999999999997
10
-112.56250000000001
20
73.675000000000011
42
-0.41421356237309509
10
-112.0625
20
73.174999999999997
0
LWPOLYLINE
5
152
100
AcDbEntity
8
0
100
AcDbPolyline
90
8
70
1
43
0.0
10
-244.62500000000003
20
2.5249999999999995
42
-0.41421356237313273
10
-245.12500000000003
20
3.0249999999999999
10
-245.12500000000006
20
16.024999999999999
42
-0.4142135623730781
10
-244.62500000000003
20
16.525000000000002
10
-231.625
20
16.524999999999984
42
-0.41421356237312362
10
-231.125
20
16.024999999999999
10
-231.125
20
3.0250000000000021
42
-0.41421356237304752
10
-231.625
20
2.5249999999999999
0
LWPOLYLINE
5
153
100
AcDbEntity
8
0
100
AcDbPolyline
90
8
70
1
43
0.0
10
-116.82499999999999
20
3.0249999999999999
42
-0.41421356237310542
10
-117.32500000000002
20
2.5249999999999999
10
-130.32499999999999
20
2.5249999999999941
42
-0.41421356237309437
10
-130.82499999999999
20
3.0249999999999999
10
-130.82499999999999
20
16.024999999999999
42
-0.41421356237310675
10
-130.32499999999999
20
16.525000000000002
10
-117.32500000000002
20
16.525000000000009
42
-0.41421356237309637
10
-116.82500000000002
20
16.024999999999999
0
LWPOLYLINE
5
154
100
AcDbEntity
8
0
100
AcDbPolyline
90
8
70
1
43
0.0
10
-7.2874999999999996
20
22.074999999999996
42
-0.4142135623730937
10
-7.7875000000000005
20
21.575000000000003
10
-20.787500000000012
20
21.575000000000003
42
-0.41421356237308982
10
-21.287500000000001
20
22.074999999999999
10
-21.287500000000001
20
35.075000000000003
42
-0.41421356237309509
10
-20.787500000000001
20
35.575000000000003
10
-7.787500000000005
20
35.575000000000003
42
-0.4142135623730977
10
-7.2874999999999996
20
35.075000000000003
0
LWPOLYLINE
5
155
100
AcDbEntity
8
0
100
AcDbPolyline
90
8
70
1
43
0.0
10
-97.774999999999977
20
3.0249999999999999
42
-0.41421356237310542
10
-98.275000000000006
20
2.5249999999999999
10
-111.27500000000001
20
2.5249999999999941
42
-0.41421356237309437
10
-111.77500000000002
20
3.0249999999999999
10
-111.77500000000002
20
16.024999999999999
42
-0.41421356237310675
10
-111.27500000000001
20
16.525000000000002
10
-98.275000000000006
20
16.525000000000009
42
-0.41421356237309637
10
-97.775000000000006
20
16.024999999999999
0
LWPOLYLINE
5
156
100
AcDbEntity
8
0
100
AcDbPolyline
90
8
70
1
43
0.0
10
-2.5249999999999999
20
3.0249999999999999
42
-0.41421356237309437
10
-3.0249999999999999
20
2.5249999999999999
10
-16.025000000000009
20
2.5249999999999986
42
-0.41421356237308787
10
-16.525000000000002
20
3.0249999999999999
10
-16.525000000000002
20
16.024999999999999
42
-0.41421356237309243
10
-16.024999999999999
20
16.525000000000002
10
-3.0250000000000021
20
16.525000000000002
42
-0.41421356237309598
10
-2.5249999999999999
20
16.024999999999999
0
LWPOLYLINE
5
157
100
AcDbEntity
8
0
100
AcDbPolyline
90
8
70
1
43
0.0
10
-64.437500000000014
20
22.074999999999999
42
-0.4142135623730977
10
-64.9375
20
21.575000000000003
10
-77.9375
20
21.575000000000003
42
-0.41421356237309509
10
-78.4375
20
22.074999999999999
10
-78.4375
20
35.075000000000003
42
-0.41421356237309509
10
-77.9375
20
35.575000000000003
10
-64.9375
20
35.575000000000003
42
-0.4142135623730977
10
-64.4375
20
35.075000000000003
0
LWPOLYLINE
5
158
100
AcDbEntity
8
0
100
AcDbPolyline
90
8
70
1
43
0.0
10
-73.962500000000006
20
60.174999999999997
42
-0.41421356237310542
10
-74.462500000000006
20
59.675000000000004
10
-87.462500000000006
20
59.674999999999983
42
-0.41421356237307944
10
-87.96250000000002
20
60.174999999999997
10
-87.962500000000006
20
73.174999999999997
42
-0.4142135623731002
10
-87.46250000000002
20
73.674999999999997
10
-74.462500000000006
20
73.674999999999997
42
-0.41421356237309509
10
-73.962500000000006
20
73.174999999999997
0
LWPOLYLINE
5
159
100
AcDbEntity
8
0
100
AcDbPolyline
90
8
70
1
43
0.0
10
-164.44999999999996
20
41.125
42
-0.41421356237307422
10
-164.95000000000002
20
40.625
10
-177.94999999999999
20
40.625
42
-0.41421356237313145
10
-178.44999999999999
20
41.125
10
-178.45000000000002
20
54.125000000000007
42
-0.41421356237307422
10
-177.94999999999999
20
54.625
10
-164.95000000000002
20
54.625
42
-0.41421356237313145
10
-164.44999999999999
20
54.125000000000007
0
LWPOLYLINE
5
160
100
AcDbEntity
8
0
100
AcDbPolyline
90
8
70
1
43
0.0
10
-173.97499999999997
20
3.0249999999999999
42
-0.41421356237307744
10
-174.47500000000002
20
2.5249999999999999
10
-187.47499999999999
20
2.5249999999999995
42
-0.41421356237313273
10
-187.97499999999999
20
3.0249999999999999
10
-187.97500000000002
20
16.024999999999999
42
-0.4142135623730781
10
-187.47499999999999
20
16.525000000000002
10
-174.47500000000002
20
16.525000000000002
42
-0.414213562373134
10
-173.97500000000002
20
16.024999999999999
0
LWPOLYLINE
5
161
100
AcDbEntity
8
0
100
AcDbPolyline
90
8
70
1
43
0.0
10
-107.30000000000001
20
41.125
42
-0.41421356237308982
10
-107.80000000000001
20
40.625
10
-120.8
20
40.624999999999993
42
-0.41421356237307422
10
-121.30000000000001
20
41.125
10
-121.29999999999998
20
54.125000000000007
42
-0.4142135623731002
10
-120.8
20
54.625
10
-107.80000000000001
20
54.625000000000014
42
-0.41421356237309509
10
-107.30000000000001
20
54.125000000000007
0
LWPOLYLINE
5
162
100
AcDbEntity
8
0
100
AcDbPolyline
90
8
70
1
43
0.0
10
-150.16249999999999
20
60.174999999999997
42
-0.41421356237310542
10
-150.66249999999999
20
59.675000000000004
10
-163.66250000000002
20
59.675000000000011
42
-0.41421356237312629
10
-164.16250000000002
20
60.174999999999997
10
-164.16249999999997
20
73.174999999999997
42
-0.4142135623730222
10
-163.66250000000002
20
73.674999999999997
10
-150.66249999999999
20
73.675000000000011
42
-0.41421356237309509
10
-150.16249999999999
20
73.174999999999997
0
ENDSEC
0
SECTION
2
OBJECTS
0
DICTIONARY
5
C
100
AcDbDictionary
3
ACAD_GROUP
350
D
3
ACAD_MLINESTYLE
350
17
0
DICTIONARY
5
D
100
AcDbDictionary
0
DICTIONARY
5
1A
330
C
100
AcDbDictionary
0
DICTIONARY
5
17
100
AcDbDictionary
0
ENDSEC
0
EOF
